<svg width="18" height="24" fill="none" xmlns="http://www.w3.org/2000/svg"><path d="M9 3.648c-2.927 0-5.308 2.259-5.308 5.035 0 2.777 2.381 5.036 5.308 5.036 2.926 0 5.307-2.26 5.307-5.036S11.927 3.648 9 3.648zm0 8.716c-2.14 0-3.88-1.651-3.88-3.681 0-2.03 1.74-3.68 3.88-3.68 2.14 0 3.88 1.65 3.88 3.68 0 2.03-1.74 3.681-3.88 3.681z" fill="#fff"/><path d="M9 .144c-4.963 0-9 3.83-9 8.539 0 2.715 2.4 6.76 3.83 8.93.942 1.427 1.954 2.786 2.85 3.825 1.436 1.668 1.95 1.808 2.32 1.808.375 0 .86-.14 2.293-1.809.898-1.045 1.91-2.403 2.85-3.823C15.583 15.439 18 11.386 18 8.682 18 3.974 13.963.144 9 .144zm4.153 16.415c-1.846 2.843-3.54 4.764-4.162 5.254-.624-.475-2.291-2.35-4.163-5.245-2.16-3.342-3.4-6.216-3.4-7.885C1.428 4.72 4.825 1.498 9 1.498c4.175 0 7.572 3.223 7.572 7.185 0 1.66-1.246 4.53-3.419 7.876z" fill="#fff"/></svg>