<svg width="18" height="18" xmlns="http://www.w3.org/2000/svg"><g clip-path="url(#clip0)"><path fill-rule="evenodd" clip-rule="evenodd" d="M14.361 2.452A8.308 8.308 0 008.447 0C3.837 0 .086 3.751.084 8.361c0 1.474.385 2.913 1.116 4.18L.014 16.876l4.433-1.163a8.353 8.353 0 003.996 1.018h.004c4.608 0 8.36-3.751 8.361-8.362a8.31 8.31 0 00-2.447-5.916zM8.447 15.318h-.002a6.942 6.942 0 01-3.538-.969l-.254-.15-2.63.69.702-2.565-.165-.263a6.933 6.933 0 01-1.063-3.7A6.96 6.96 0 018.45 1.413c1.857 0 3.602.725 4.914 2.038a6.909 6.909 0 012.034 4.918c-.002 3.832-3.12 6.95-6.95 6.95zm3.813-5.206c-.21-.104-1.236-.61-1.428-.68-.191-.07-.33-.104-.47.105-.14.21-.54.68-.662.82-.122.139-.243.156-.452.052-.21-.105-.882-.325-1.68-1.037-.622-.554-1.041-1.239-1.163-1.448-.122-.209 0-.311.092-.426.226-.28.452-.575.522-.715s.035-.261-.017-.366c-.053-.104-.47-1.133-.645-1.551-.17-.407-.341-.352-.47-.359a8.347 8.347 0 00-.4-.007.767.767 0 00-.557.261c-.192.21-.732.715-.732 1.743 0 1.029.75 2.022.854 2.162.104.14 1.473 2.25 3.569 3.154.498.216.887.344 1.191.44.5.16.956.137 1.316.084.401-.06 1.236-.506 1.41-.994.174-.488.174-.906.122-.994-.052-.087-.191-.139-.4-.244z"/></g><defs><clipPath id="clip0"><path d="M0 0h18v18H0z"/></clipPath></defs></svg>