<svg width="50" height="31" fill="none" xmlns="http://www.w3.org/2000/svg"><path d="M8.626 28H7.495a.544.544 0 01-.325-.098 1.107 1.107 0 01-.247-.299l-2.464-3.412a.99.99 0 00-.364-.351c-.13-.07-.308-.104-.533-.104H2.444V28H1.19v-9.314h1.254v4.081h.969c.195 0 .36-.03.494-.09.138-.061.275-.18.409-.358l2.438-3.276a.879.879 0 01.234-.253.549.549 0 01.331-.104h1.06l-2.815 3.828a1.622 1.622 0 01-.819.617c.23.061.423.159.579.293.16.13.312.312.455.546L8.626 28zm3.293-6.689c.48 0 .914.08 1.3.241.385.16.715.388.988.683.273.294.48.652.624 1.072.147.416.22.882.22 1.398 0 .52-.073.988-.22 1.404a2.963 2.963 0 01-.624 1.065 2.786 2.786 0 01-.988.683 3.44 3.44 0 01-1.3.234c-.486 0-.923-.078-1.313-.234a2.785 2.785 0 01-.988-.683 3.04 3.04 0 01-.63-1.066 4.303 4.303 0 01-.215-1.404c0-.515.071-.981.214-1.397a3.03 3.03 0 01.63-1.072c.274-.295.603-.523.989-.683.39-.16.827-.24 1.313-.24zm0 5.877c.65 0 1.135-.217 1.456-.65.32-.438.48-1.047.48-1.827 0-.784-.16-1.395-.48-1.833-.321-.438-.806-.657-1.456-.657-.33 0-.618.057-.865.17a1.633 1.633 0 00-.61.487 2.213 2.213 0 00-.365.787 4.27 4.27 0 00-.117 1.046c0 .78.16 1.389.481 1.827.325.433.817.65 1.476.65zm5.764-.774c.212.286.444.487.695.604.251.117.533.176.845.176.615 0 1.088-.219 1.417-.656.33-.438.494-1.062.494-1.872 0-.43-.039-.798-.117-1.105a2.085 2.085 0 00-.325-.755 1.27 1.27 0 00-.526-.435 1.751 1.751 0 00-.709-.136c-.377 0-.709.086-.995.26a2.88 2.88 0 00-.78.734v3.185zm-.059-3.978a3.43 3.43 0 01.962-.826 2.47 2.47 0 011.248-.311c.381 0 .726.073 1.034.22.307.144.57.358.786.644.217.282.384.633.5 1.053.117.42.176.903.176 1.45 0 .485-.065.938-.195 1.358-.13.416-.319.778-.566 1.085a2.652 2.652 0 01-.896.722c-.351.173-.748.26-1.19.26-.403 0-.75-.067-1.04-.201a2.493 2.493 0 01-.76-.573v2.913h-1.164v-8.814h.696c.164 0 .266.08.305.24l.104.78zm5.627-.345c.246-.233.546-.422.896-.565.356-.143.783-.215 1.281-.215.399 0 .75.05 1.053.15.303.095.557.223.76.384.209.16.364.344.468.552a1.34 1.34 0 01.098 1.047 1.246 1.246 0 01-.201.409 1.74 1.74 0 01-.371.364c-.152.113-.34.204-.566.273.42.126.75.327.988.605.243.277.364.617.364 1.02 0 .303-.069.579-.207.826-.14.242-.326.45-.56.623a2.656 2.656 0 01-.819.39 3.39 3.39 0 01-.968.137 3.74 3.74 0 01-.65-.059 3.331 3.331 0 01-.637-.181 3.38 3.38 0 01-.591-.319 2.306 2.306 0 01-.488-.455l.325-.423a.255.255 0 01.221-.11c.078 0 .16.035.247.104.091.065.202.139.332.221.13.082.288.158.474.227.19.066.422.098.695.098.239 0 .451-.028.637-.084.191-.061.352-.143.482-.247a1.059 1.059 0 00.403-.838.93.93 0 00-.41-.788c-.269-.199-.678-.298-1.229-.298h-.747v-.767h.748c.238 0 .452-.024.643-.072a1.75 1.75 0 00.488-.208.822.822 0 00.052-1.391 1.395 1.395 0 00-.442-.208 2.232 2.232 0 00-.625-.078c-.26 0-.48.026-.662.078a2.98 2.98 0 00-.456.169c-.12.06-.22.117-.299.169a.384.384 0 01-.201.078.29.29 0 01-.143-.032.432.432 0 01-.117-.137l-.267-.448zm11.904-.675V28h-1.157v-4.472c0-.087.004-.18.013-.28.008-.1.02-.199.032-.299a4.19 4.19 0 01-.117.241c-.039.074-.08.14-.123.201l-3.179 4.323c-.047.07-.108.137-.182.202a.346.346 0 01-.234.09h-.702v-6.584h1.164v4.472c0 .082-.005.173-.013.273-.009.095-.02.193-.033.292.04-.082.078-.158.117-.227a2.77 2.77 0 01.117-.201l3.179-4.323a.96.96 0 01.182-.195.357.357 0 01.24-.098h.696zm7.315 0V28h-1.164v-3.081h-3.159V28h-1.163v-6.584h1.163v2.625h3.16v-2.625h1.163zm5.408 3.62c-.533.017-.988.06-1.365.13a3.844 3.844 0 00-.917.26c-.234.108-.405.236-.513.384a.837.837 0 00-.156.494c0 .173.028.322.084.448a.88.88 0 00.228.312c.1.078.214.137.344.175.134.035.277.052.43.052.203 0 .39-.019.558-.058.17-.043.327-.104.475-.182a2.52 2.52 0 00.429-.28c.138-.108.273-.231.403-.37v-1.365zm-3.738-2.691a3.759 3.759 0 011.177-.787c.42-.173.886-.26 1.397-.26.368 0 .696.061.982.183a2 2 0 01.721.506c.195.217.342.48.442.787.1.308.15.646.15 1.014V28h-.514a.53.53 0 01-.26-.052c-.06-.039-.108-.113-.143-.221l-.13-.624a7.09 7.09 0 01-.507.429 3.185 3.185 0 01-.52.312 2.8 2.8 0 01-.585.188 3 3 0 01-.682.072c-.256 0-.497-.035-.722-.104a1.743 1.743 0 01-.591-.325 1.572 1.572 0 01-.397-.54 1.957 1.957 0 01-.143-.78c0-.26.072-.509.215-.747.143-.243.374-.457.695-.643.32-.187.739-.338 1.255-.456.515-.12 1.148-.19 1.898-.207v-.514c0-.511-.11-.897-.332-1.157-.22-.264-.544-.396-.968-.396a2.05 2.05 0 00-.722.11c-.19.07-.357.15-.5.24-.14.087-.26.167-.364.241a.52.52 0 01-.3.104.345.345 0 01-.2-.058.612.612 0 01-.144-.157l-.208-.37z" fill="#B5B5B5"/><path d="M19.386 1.73l.145.476.478-.143.013-.005h12.723c.417 0 .755.338.755.755v.11c0 .11-.025.222-.072.322L30.71 9.022a1.059 1.059 0 01-.958.608h-7.838l-.145.248-.016.029a.63.63 0 01-.01.016l-.002.003-1.232 1.437-.607.708a1.22 1.22 0 01-.027-.079l-.478.15.478-.15c-.106-.334-.01-.736.258-1.048h0l.909-1.06.179-.209-.08-.263-2.435-8-.107-.354h-1.352c-.51 0-1.287-.098-1.962-.202a35.662 35.662 0 01-.557-.09l.031-.01C15.18.635 15.941.5 17.247.5h1.558a.28.28 0 01.267.198l.314 1.031zm1.503 11.017c-.397 0-.747-.209-.933-.559h11.986v.559H20.889zm1.702 2.838a1.058 1.058 0 11-2.117 0 1.058 1.058 0 012.117 0zm9.351 0a1.058 1.058 0 11-2.117 0 1.058 1.058 0 012.117 0z" stroke="#B5B5B5"/></svg>