<svg width="38" height="33" fill="none" xmlns="http://www.w3.org/2000/svg"><path d="M4.459 28.999c.36 0 .67-.041.93-.123a1.72 1.72 0 00.636-.345c.17-.152.293-.33.371-.533a1.93 1.93 0 00.117-.683c0-.48-.171-.86-.513-1.137-.343-.282-.856-.422-1.541-.422H2.444v3.243h2.015zM2.444 21.68v3.178h1.664c.355 0 .663-.038.923-.117.264-.078.481-.186.65-.325.173-.138.301-.305.383-.5.083-.2.124-.416.124-.65 0-.55-.165-.951-.494-1.202-.33-.256-.84-.384-1.534-.384H2.444zm1.716-.994c.572 0 1.064.056 1.476.169.415.112.756.273 1.02.48.269.209.466.464.591.767.126.3.189.637.189 1.014a2.008 2.008 0 01-.429 1.248 2.327 2.327 0 01-.546.494c-.217.143-.472.26-.767.351.685.13 1.198.375 1.54.735.347.355.52.823.52 1.404 0 .394-.073.754-.22 1.079a2.265 2.265 0 01-.638.838c-.277.235-.62.416-1.026.546A4.716 4.716 0 014.479 30h-3.29v-9.314H4.16zm7.835 2.625c.48 0 .914.08 1.3.241.385.16.715.388.988.683.273.294.48.652.624 1.072.147.416.22.882.22 1.398 0 .52-.073.988-.22 1.404a2.963 2.963 0 01-.624 1.065 2.785 2.785 0 01-.988.683 3.44 3.44 0 01-1.3.234c-.486 0-.923-.078-1.313-.234a2.786 2.786 0 01-.988-.683 3.04 3.04 0 01-.63-1.066 4.303 4.303 0 01-.215-1.404c0-.515.071-.981.214-1.397a3.03 3.03 0 01.63-1.072c.274-.295.603-.523.989-.683.39-.16.827-.24 1.313-.24zm0 5.877c.65 0 1.135-.217 1.456-.65.32-.438.48-1.047.48-1.827 0-.784-.16-1.395-.48-1.833-.32-.438-.806-.657-1.456-.657-.33 0-.618.057-.865.17a1.634 1.634 0 00-.61.487 2.24 2.24 0 00-.365.787 4.27 4.27 0 00-.117 1.046c0 .78.16 1.389.481 1.827.325.433.817.65 1.476.65zm10.249-5.772V30h-1.157v-4.472c0-.087.004-.18.013-.28.008-.1.02-.199.032-.299a4.19 4.19 0 01-.117.241 1.78 1.78 0 01-.123.201l-3.179 4.323a1.11 1.11 0 01-.182.202.346.346 0 01-.234.09h-.702v-6.584h1.164v4.472c0 .082-.005.173-.013.273-.009.095-.02.193-.033.292.04-.082.078-.158.117-.227a2.77 2.77 0 01.117-.201l3.179-4.323a.957.957 0 01.182-.195.357.357 0 01.24-.098h.696zm-2.75-1.593c.178 0 .327-.02.449-.058a.646.646 0 00.292-.202.83.83 0 00.17-.351 2.27 2.27 0 00.051-.526h.676c.082 0 .145.036.189.11a.466.466 0 01.065.24c0 .217-.044.412-.13.585a1.283 1.283 0 01-.377.449 1.75 1.75 0 01-.592.28 2.965 2.965 0 01-.793.097c-.294 0-.559-.032-.793-.098a1.82 1.82 0 01-.598-.279 1.312 1.312 0 01-.37-.448 1.29 1.29 0 01-.13-.585c0-.087.021-.167.065-.241a.207.207 0 01.188-.11h.676c0 .207.017.383.052.526a.88.88 0 00.163.351.691.691 0 00.299.202c.121.038.27.058.448.058zm10.052 2.476h-2.529V30H25.86v-5.7h-2.528v-.884h6.214v.883zm6.751-.883V30H35.14v-4.472c0-.087.005-.18.013-.28.01-.1.02-.199.033-.299a4.19 4.19 0 01-.117.241c-.04.074-.08.14-.124.201l-3.178 4.323a1.09 1.09 0 01-.182.202.346.346 0 01-.234.09h-.702v-6.584h1.163v4.472c0 .082-.004.173-.013.273-.008.095-.02.193-.032.292.039-.082.078-.158.117-.227a2.77 2.77 0 01.117-.201l3.178-4.323a.96.96 0 01.182-.195.357.357 0 01.24-.098h.696zm-10.933-11.78a8.966 8.966 0 00-3.42-2.145 5.201 5.201 0 002.26-4.288A5.209 5.209 0 0019 0a5.209 5.209 0 00-5.203 5.203c0 1.777.896 3.349 2.26 4.288a8.965 8.965 0 00-3.42 2.145A8.941 8.941 0 0010 18h1.406c0-4.187 3.407-7.594 7.594-7.594s7.594 3.407 7.594 7.594H28a8.941 8.941 0 00-2.636-6.364zM19 9a3.801 3.801 0 01-3.797-3.797A3.801 3.801 0 0119 1.406a3.801 3.801 0 013.797 3.797A3.801 3.801 0 0119 9z" fill="#B5B5B5"/></svg>