<svg width="46" height="36" fill="none" xmlns="http://www.w3.org/2000/svg"><path d="M31.436 9.134l-.002-.002L22.867.566A1.92 1.92 0 0021.5 0c-.516 0-1.002.201-1.367.566L11.57 9.128a1.935 1.935 0 00-.005 2.739 1.923 1.923 0 001.343.566h.341v6.304A2.265 2.265 0 0015.512 21h3.352c.34 0 .615-.276.615-.615v-4.943c0-.569.463-1.032 1.033-1.032h1.977c.569 0 1.032.463 1.032 1.032v4.943c0 .34.275.615.615.615h3.352a2.265 2.265 0 002.263-2.263v-6.303h.317a1.936 1.936 0 001.368-3.3zm-.871 1.863a.699.699 0 01-.497.206h-.932a.615.615 0 00-.616.615v6.92c0 .569-.463 1.032-1.032 1.032h-2.736v-4.328a2.265 2.265 0 00-2.263-2.262h-1.977a2.266 2.266 0 00-2.264 2.262v4.328h-2.736c-.57 0-1.032-.463-1.032-1.033v-6.919a.615.615 0 00-.616-.615h-.916a.698.698 0 01-.513-.206.704.704 0 010-.994l.001-.001 8.567-8.566a.698.698 0 01.497-.206c.188 0 .364.074.497.206L30.562 10l.004.004a.704.704 0 01-.001.993zM6.799 24.68H2.45V33H1.19v-9.314h5.609v.994zM11.157 33H10v-5.674H7.92c-.052.836-.13 1.56-.234 2.17-.104.607-.23 1.125-.377 1.554a4.322 4.322 0 01-.487 1.04 2.46 2.46 0 01-.566.617 1.67 1.67 0 01-.61.3 2.564 2.564 0 01-.625.078c-.368 0-.552-.059-.552-.176v-.734h.338c.147 0 .297-.026.448-.078.152-.053.3-.152.442-.3.148-.147.288-.353.423-.617.134-.269.255-.615.364-1.04.112-.429.208-.947.286-1.553a27.02 27.02 0 00.188-2.171h4.2V33zm5.401-2.964c-.533.017-.988.06-1.365.13a3.847 3.847 0 00-.916.26c-.234.108-.405.236-.514.384a.837.837 0 00-.156.494c0 .173.028.322.085.448.056.126.132.23.227.312.1.078.215.136.345.175.134.035.277.053.429.053.203 0 .39-.02.559-.059a2.15 2.15 0 00.474-.182c.152-.078.295-.171.43-.28.138-.108.272-.231.402-.37v-1.365zm-3.737-2.691a3.76 3.76 0 011.176-.787c.42-.173.886-.26 1.398-.26.368 0 .695.061.981.183.286.12.527.29.722.506.195.217.342.48.442.787.1.308.15.646.15 1.014V33h-.514a.53.53 0 01-.26-.052c-.06-.039-.109-.113-.143-.221l-.13-.624c-.174.16-.343.303-.507.429a3.181 3.181 0 01-.52.312 2.8 2.8 0 01-.585.188 2.998 2.998 0 01-.683.072 2.45 2.45 0 01-.721-.104 1.744 1.744 0 01-.592-.325 1.575 1.575 0 01-.396-.54 1.959 1.959 0 01-.143-.78c0-.26.071-.509.214-.747.143-.243.375-.457.696-.643.32-.187.739-.338 1.254-.456.516-.12 1.149-.19 1.898-.207v-.514c0-.511-.11-.897-.331-1.157-.221-.264-.544-.396-.969-.396-.286 0-.526.036-.721.11-.19.07-.358.15-.5.24a7.53 7.53 0 00-.365.241c-.1.07-.2.104-.299.104a.345.345 0 01-.201-.058.614.614 0 01-.143-.157l-.208-.37zm9.16 4.843c.432 0 .775-.1 1.026-.3.252-.203.377-.48.377-.832 0-.155-.024-.296-.071-.422a.823.823 0 00-.234-.338 1.114 1.114 0 00-.436-.221 2.37 2.37 0 00-.656-.078h-1.424v2.19h1.417zm-1.418-4.993v2.067h1.268a1.7 1.7 0 00.526-.078c.165-.056.306-.132.423-.227.117-.1.208-.217.273-.351a1.059 1.059 0 00.032-.806.721.721 0 00-.22-.306 1.109 1.109 0 00-.41-.214 1.994 1.994 0 00-.624-.085h-1.268zm1.3-.78c.407 0 .756.042 1.047.124.29.082.528.195.715.338.186.139.323.303.41.494.086.19.13.394.13.611 0 .143-.02.293-.06.448a1.48 1.48 0 01-.604.838 1.976 1.976 0 01-.624.267c.503.087.89.263 1.164.527.273.26.41.604.41 1.034 0 .32-.066.6-.196.838a1.717 1.717 0 01-.526.591c-.221.16-.481.28-.78.358a3.8 3.8 0 01-.962.117h-2.535v-6.584h2.411zm9.524 0V33h-1.164v-3.081h-3.159V33h-1.163v-6.584h1.163v2.625h3.16v-2.625h1.163zm5.408 3.621c-.533.017-.988.06-1.365.13a3.844 3.844 0 00-.917.26c-.234.108-.405.236-.513.384a.837.837 0 00-.156.494c0 .173.028.322.084.448a.88.88 0 00.228.312c.1.078.214.136.344.175.134.035.277.053.43.053.203 0 .39-.02.558-.059.17-.043.327-.104.475-.182a2.52 2.52 0 00.429-.28c.138-.108.273-.231.403-.37v-1.365zm-3.738-2.691a3.759 3.759 0 011.177-.787c.42-.173.886-.26 1.397-.26.368 0 .696.061.982.183a2 2 0 01.721.506c.195.217.342.48.442.787.1.308.15.646.15 1.014V33h-.514a.53.53 0 01-.26-.052c-.06-.039-.108-.113-.143-.221l-.13-.624a7.09 7.09 0 01-.507.429 3.185 3.185 0 01-.52.312 2.8 2.8 0 01-.585.188 3 3 0 01-.682.072c-.256 0-.497-.035-.722-.104a1.743 1.743 0 01-.591-.325 1.572 1.572 0 01-.397-.54 1.957 1.957 0 01-.143-.78c0-.26.072-.509.215-.747.143-.243.374-.457.695-.643.32-.187.739-.338 1.255-.456.515-.12 1.148-.19 1.898-.207v-.514c0-.511-.11-.897-.332-1.157-.22-.264-.544-.396-.968-.396a2.05 2.05 0 00-.722.11c-.19.07-.357.15-.5.24-.14.087-.26.167-.364.241a.52.52 0 01-.3.104.345.345 0 01-.2-.058.612.612 0 01-.144-.157l-.208-.37zm10.096 2.145v-2.294h-1.105a1.56 1.56 0 00-.625.11 1.13 1.13 0 00-.409.273.966.966 0 00-.215.37 1.307 1.307 0 00-.065.403c0 .356.13.635.39.839.26.2.616.299 1.066.299h.963zm1.105-3.074V33h-1.105v-2.776h-.508c-.12 0-.223.011-.305.033a.739.739 0 00-.208.078.557.557 0 00-.15.136 2.509 2.509 0 00-.136.183l-1.443 1.943a.759.759 0 01-.273.306c-.104.065-.258.097-.462.097h-.806l1.911-2.483a1.14 1.14 0 01.618-.52 2.712 2.712 0 01-.845-.234 2.017 2.017 0 01-.566-.397 1.476 1.476 0 01-.311-.513 1.706 1.706 0 01-.098-.566c0-.225.043-.45.13-.675.091-.226.234-.425.429-.598.195-.178.446-.321.754-.43.312-.112.689-.168 1.131-.168h2.242z" fill="#B5B5B5"/></svg>