<svg width="37" height="33" fill="none" xmlns="http://www.w3.org/2000/svg"><path d="M10.881 20.686V30H9.776v-6.845c0-.09.002-.188.007-.292l.026-.319L6.61 28.37c-.1.195-.252.292-.455.292h-.183c-.203 0-.355-.098-.454-.293l-3.264-5.85c.026.23.04.442.04.637V30H1.19v-9.314h.929c.113 0 .2.01.26.032s.12.082.175.182l3.218 5.733c.052.104.102.212.15.325.051.113.1.228.143.345.043-.117.088-.232.136-.345.048-.117.1-.227.156-.331L9.516 20.9c.052-.1.108-.16.169-.182a.871.871 0 01.266-.032h.93zm6.313 5.303c0-.268-.04-.513-.117-.734a1.555 1.555 0 00-.332-.578 1.4 1.4 0 00-.526-.378 1.751 1.751 0 00-.709-.136c-.554 0-.994.163-1.32.488-.32.32-.52.767-.597 1.338h3.6zm.936 3.088a2.26 2.26 0 01-.514.455c-.2.126-.414.23-.643.312a3.85 3.85 0 01-.702.182 4.1 4.1 0 01-.722.065c-.455 0-.875-.076-1.26-.228a2.856 2.856 0 01-.995-.675 3.162 3.162 0 01-.65-1.105c-.156-.438-.234-.94-.234-1.508 0-.46.069-.889.208-1.287a3.04 3.04 0 01.61-1.034c.265-.295.588-.524.97-.689.38-.169.81-.254 1.286-.254.395 0 .758.068 1.092.202.338.13.628.32.871.572.247.247.44.555.579.923.138.364.208.78.208 1.248 0 .182-.02.303-.059.364-.039.06-.113.091-.22.091h-4.401c.013.416.069.778.169 1.086.104.307.247.565.429.773.182.204.398.357.65.462.251.1.533.149.845.149.29 0 .54-.033.747-.098a3.734 3.734 0 00.923-.435.51.51 0 01.267-.104c.095 0 .169.037.22.11l.326.423zm7.01-5.662V30h-1.163v-3.081h-3.159V30h-1.163v-6.584h1.163v2.625h3.16v-2.625h1.163zm7.547 5.773c.607 0 1.06-.217 1.358-.65.3-.438.449-1.047.449-1.827 0-.784-.15-1.395-.449-1.833-.299-.438-.751-.657-1.358-.657-.607 0-1.06.22-1.358.657-.3.438-.449 1.049-.449 1.833 0 .78.15 1.389.448 1.827.3.433.752.65 1.359.65zm-2.944-2.932c.039-.45.132-.858.279-1.222a2.9 2.9 0 01.605-.93c.255-.255.554-.45.896-.584a3.108 3.108 0 011.164-.209c.46 0 .873.08 1.242.241.372.16.688.388.948.683.26.294.46.652.598 1.072.143.416.215.882.215 1.398 0 .52-.072.988-.215 1.404a3.068 3.068 0 01-.61 1.065 2.711 2.711 0 01-.95.683 3.12 3.12 0 01-1.228.234c-.438 0-.832-.07-1.183-.208a2.59 2.59 0 01-.897-.591 2.958 2.958 0 01-.604-.943 4.056 4.056 0 01-.267-1.248h-1.593V30H26.98v-6.584h1.163v2.84h1.6z" fill="#B5B5B5"/><path d="M27.994 15.422s0 0 0 0H6.006s0 0 0 0c0-.002-.114-.03-.26-.343-.143-.312-.246-.778-.246-1.32 0-.54.103-1.007.247-1.319.145-.313.26-.341.26-.343h-.001 21.988s0 0 0 0c0 .002.114.03.26.343.143.312.246.778.246 1.32 0 .54-.103 1.007-.247 1.319-.145.313-.26.34-.26.343zm0-5.798s0 0 0 0H6.006s0 0 0 0c0-.002-.114-.03-.26-.344-.143-.312-.246-.778-.246-1.319 0-.541.103-1.007.247-1.32.145-.313.26-.34.26-.343h-.001 21.988s0 0 0 0c0 .003.114.03.26.344.143.312.246.778.246 1.32 0 .54-.103 1.006-.247 1.318-.145.314-.26.342-.26.344zm0-5.799s0 0 0 0H6.006s0 0 0 0c0-.002-.114-.03-.26-.343-.143-.312-.246-.778-.246-1.32 0-.54.103-1.006.247-1.318.145-.314.26-.342.26-.344h-.001 21.988s0 0 0 0c0 .002.114.03.26.344.143.312.246.778.246 1.319 0 .541-.103 1.007-.247 1.32-.145.313-.26.34-.26.342z" stroke="#B5B5B5"/></svg>