<svg width="47" height="38" fill="none" xmlns="http://www.w3.org/2000/svg"><path d="M7.488 26.745H4.472V35H3.217v-8.255H.196v-1.06h7.293v1.06zm2.298 1.566c.48 0 .914.08 1.3.241.385.16.715.388.988.683.273.294.48.652.624 1.072.147.416.22.882.22 1.398 0 .52-.073.988-.22 1.404a2.963 2.963 0 01-.624 1.066 2.786 2.786 0 01-.988.682 3.44 3.44 0 01-1.3.234c-.486 0-.923-.078-1.313-.234a2.785 2.785 0 01-.988-.682 3.04 3.04 0 01-.63-1.066 4.303 4.303 0 01-.215-1.405c0-.515.071-.981.214-1.397a3.03 3.03 0 01.63-1.072c.274-.295.603-.523.989-.683.39-.16.827-.24 1.313-.24zm0 5.877c.65 0 1.135-.217 1.456-.65.32-.438.48-1.047.48-1.827 0-.784-.16-1.395-.48-1.833-.32-.438-.806-.657-1.456-.657-.33 0-.618.057-.865.17a1.634 1.634 0 00-.61.487 2.23 2.23 0 00-.365.787 4.27 4.27 0 00-.117 1.046c0 .78.16 1.389.481 1.827.325.433.817.65 1.476.65zm7.129 0c.433 0 .775-.1 1.027-.3.251-.203.377-.48.377-.831 0-.157-.024-.297-.072-.423a.82.82 0 00-.234-.338 1.113 1.113 0 00-.435-.221 2.369 2.369 0 00-.657-.078h-1.423v2.19h1.417zm-1.417-4.993v2.067h1.267c.19 0 .366-.026.527-.078a1.36 1.36 0 00.422-.227c.117-.1.208-.217.273-.351a1.059 1.059 0 00.033-.806.72.72 0 00-.221-.306 1.109 1.109 0 00-.41-.214 1.994 1.994 0 00-.624-.085h-1.267zm1.3-.78c.407 0 .756.042 1.046.124.29.082.529.195.715.338.187.139.323.303.41.494.086.19.13.394.13.611 0 .143-.02.293-.059.448a1.478 1.478 0 01-.604.838 1.974 1.974 0 01-.624.267c.502.087.89.263 1.163.527.273.26.41.605.41 1.034 0 .32-.065.6-.195.838a1.715 1.715 0 01-.527.592c-.22.16-.48.279-.78.357a3.8 3.8 0 01-.962.117h-2.535v-6.584h2.412zm7.606 3.621c-.533.017-.988.06-1.365.13a3.847 3.847 0 00-.917.26c-.234.108-.405.236-.513.383a.837.837 0 00-.156.495c0 .173.028.322.084.448.057.126.133.23.228.312.1.078.214.136.344.175.135.035.278.053.43.053.203 0 .39-.02.558-.059a2.15 2.15 0 00.475-.182 2.45 2.45 0 00.429-.28c.139-.108.273-.231.403-.37v-1.365zm-3.738-2.691a3.76 3.76 0 011.177-.787c.42-.173.886-.26 1.397-.26.369 0 .696.061.982.183a2 2 0 01.721.506c.195.217.343.48.442.787.1.308.15.646.15 1.014V35h-.514a.53.53 0 01-.26-.052c-.06-.039-.108-.113-.143-.221l-.13-.624a7.07 7.07 0 01-.507.429 3.181 3.181 0 01-.52.312 2.8 2.8 0 01-.585.188 2.998 2.998 0 01-.682.072c-.256 0-.496-.035-.722-.104a1.744 1.744 0 01-.591-.325 1.575 1.575 0 01-.397-.54 1.959 1.959 0 01-.143-.78c0-.26.072-.509.215-.747.143-.243.375-.457.695-.643.321-.187.74-.338 1.255-.456.516-.12 1.148-.19 1.898-.207v-.514c0-.511-.11-.897-.332-1.157-.22-.264-.543-.396-.968-.396a2.05 2.05 0 00-.722.11c-.19.07-.357.15-.5.24-.139.087-.26.167-.364.241a.52.52 0 01-.3.104.345.345 0 01-.2-.058.614.614 0 01-.144-.157l-.208-.37zm7.795 4.069c.212.286.444.487.695.605.252.117.533.175.845.175.616 0 1.088-.219 1.417-.657.33-.437.494-1.061.494-1.871 0-.43-.039-.798-.117-1.105a2.086 2.086 0 00-.325-.755 1.27 1.27 0 00-.526-.435 1.751 1.751 0 00-.709-.136c-.377 0-.708.086-.994.26a2.877 2.877 0 00-.78.734v3.185zm-.059-3.978c.278-.342.598-.617.962-.826a2.47 2.47 0 011.248-.311c.382 0 .726.073 1.034.22.307.144.57.358.786.644.217.282.384.633.5 1.053.118.42.176.903.176 1.45 0 .485-.065.938-.195 1.358-.13.416-.318.778-.565 1.085a2.654 2.654 0 01-.897.722c-.351.173-.748.26-1.19.26-.403 0-.75-.067-1.04-.202a2.493 2.493 0 01-.76-.572v2.913h-1.164v-8.814h.696c.165 0 .266.08.305.24l.104.78zm8.698 4.719c.234 0 .436-.028.605-.084.173-.061.316-.143.429-.247.112-.109.197-.234.253-.377.057-.144.085-.3.085-.469 0-.156-.024-.3-.072-.435a.88.88 0 00-.24-.364 1.143 1.143 0 00-.43-.247 2.026 2.026 0 00-.65-.091h-1.403v2.314H37.1zm-.02-3.159c.456 0 .837.054 1.145.163.312.108.56.253.747.435.19.182.327.392.41.63a2.27 2.27 0 01-.033 1.561 1.781 1.781 0 01-.461.643 2.263 2.263 0 01-.754.422c-.3.1-.644.15-1.034.15h-2.528v-6.584h1.105v2.58h1.404zm5.032-2.58V35h-1.157v-6.584h1.157zm-7.229-15.899l-.78-.78a4.785 4.785 0 00-2.356-1.292 6.095 6.095 0 00-.363-.738 2.802 2.802 0 00-.594-1.444A2.799 2.799 0 0028.2 4.4c-.432 0-.858.102-1.244.295a4.809 4.809 0 00-1.043-3.294l-1-1.25a.4.4 0 00-.625 0L23.287 1.4a4.82 4.82 0 00-.782 1.404 6.146 6.146 0 00-.916.032 4.787 4.787 0 00-2.005-.437H18.6a.4.4 0 00-.4.4v1.103c0 .147.007.293.02.439a6.089 6.089 0 00-1.866 3.153l.023.006a2.793 2.793 0 00-.426 2.606l-1.295 6.697a.4.4 0 00-.444.299l-.347 1.387-.992.33a.4.4 0 00-.156.663l.141.14-.68.34a2.13 2.13 0 102.858 2.86l.34-.681.141.14a.4.4 0 00.663-.155l.33-.992 1.387-.347a.4.4 0 00.299-.444l7.988-1.545a6.018 6.018 0 002.317-.475l-.003-.006a4.797 4.797 0 001.92.642l1.592.177a.401.401 0 00.442-.442l-.177-1.592a4.782 4.782 0 00-.683-1.986l.05-.008a4.775 4.775 0 002.545-1.33l.696-.696a.4.4 0 000-.566zm-9.874-5.683a2.799 2.799 0 001.159 4.64 2.404 2.404 0 01-.946.119 2.788 2.788 0 00-1.123-.376 2.403 2.403 0 01-.281-.213 2.784 2.784 0 00-.325-3.26 2.414 2.414 0 011.516-.91zM25.8 16.4a1.2 1.2 0 01-.4-.069 1.199 1.199 0 00.397-2.027A1.588 1.588 0 0025.75 14a1.198 1.198 0 01.898 2.048 1.2 1.2 0 01-.848.351zm-8-5.6c0-.046.002-.092.005-.138.248.28.585.463.954.52a1.998 1.998 0 002.311 1.162A1.998 1.998 0 0117.8 10.8zm2.8-1.6a1.2 1.2 0 11-.4 2.331 1.199 1.199 0 00.397-2.027 1.588 1.588 0 00-.047-.303l.05-.001zm-.8.8a.4.4 0 110 .8.4.4 0 010-.8zm-1.195.295a.799.799 0 111.09-1.09 1.201 1.201 0 00-1.09 1.09zm4.02 3.82a2.78 2.78 0 00-.4 1.117 2 2 0 113.41-2.025 1.978 1.978 0 00-.316.051 1.598 1.598 0 00-2.693.857zM25 15.6a.4.4 0 110-.8.4.4 0 010 .8zm-.8-2a.8.8 0 01.695.405 1.202 1.202 0 00-1.09 1.09.8.8 0 01.395-1.495zm2.8-2.8a1.998 1.998 0 01-1.544-3.27 1.998 1.998 0 001.162 2.311c.057.369.24.706.52.954A2.026 2.026 0 0127 10.8zm.4-1.6a.4.4 0 110-.8.4.4 0 010 .8zm.8 1.2a.8.8 0 01-.695-.405 1.201 1.201 0 001.09-1.09.8.8 0 01-.395 1.495zm.399-2.35c-.1-.025-.2-.04-.303-.047a1.199 1.199 0 00-2.027.397 1.2 1.2 0 112.33-.35zM23.4 9.6a2.011 2.011 0 01-.832 1.621 2.803 2.803 0 00.023-.637 2.003 2.003 0 00-1.271-2.05 2.765 2.765 0 00-.388-.878A1.999 1.999 0 0123.4 9.6zm-2.964-1.193a1.989 1.989 0 00-.317.051 1.598 1.598 0 00-2.693.857 2.78 2.78 0 00-.401 1.117 2 2 0 113.41-2.025zM19.8 13.6c.45 0 .895-.109 1.294-.318a2.8 2.8 0 00.294 2.14l-1.834-1.833c.081.007.163.011.246.011zm2.06 3.426a6.041 6.041 0 002.133 1.383l-6.384 1.234-1.443-1.443 3.434-3.434 2.26 2.26zM25 17.6a2.002 2.002 0 01-1.995-2.138c.248.28.585.463.954.52a1.998 1.998 0 002.311 1.162A1.991 1.991 0 0125 17.6zm2.791-2.216a2.002 2.002 0 00-1.271-2.05 2.766 2.766 0 00-.388-.878 2 2 0 011.636 3.565 2.803 2.803 0 00.023-.637zM28.6 12a2 2 0 01-1.232-.425 2.78 2.78 0 001.117-.4 1.599 1.599 0 00.857-2.694c.025-.104.042-.21.05-.317A2 2 0 0128.6 12zm1.6-4.8c0 .158-.019.315-.056.468a2.768 2.768 0 00-.879-.388 2.003 2.003 0 00-2.05-1.271 2.846 2.846 0 00-.636.023A1.998 1.998 0 0130.2 7.2zm-6.289-5.299l.689-.86.689.86a4.007 4.007 0 01.74 3.535c-.144.176-.266.37-.364.576a3.237 3.237 0 00-.665.014V3.2h-.8v3.035a3.226 3.226 0 00-.553.29 3.986 3.986 0 01.264-4.624zM19 3.2h.584a3.98 3.98 0 012.651 1.006 4.78 4.78 0 00.361 2.025l-1.79-1.79-.566.565 1.892 1.892a2.79 2.79 0 00-1.697.074A4.022 4.022 0 0119 3.903V3.2zm-.596 2.082c.121.4.293.781.511 1.137a2.765 2.765 0 00-1.418.208c.232-.492.538-.946.907-1.345zm-1.71 5.969a6.026 6.026 0 001.28 1.889l1.06 1.06-3.434 3.434-.243-.243 1.212-6.264c.04.042.081.084.125.124zm-4.158 9.429l.918-.46.014.014-1.477 2.321a1.329 1.329 0 01.545-1.875zm1.784 1.785a1.33 1.33 0 01-1.72.624l1.447-2.276.733.733-.46.919zm1.783-2.053a.401.401 0 00-.283.262l-.195.585-1.884-1.884.585-.195a.4.4 0 00.262-.283l.229-.915 2.2 2.201-.914.229zm10.353-2.421a2.83 2.83 0 00.8-.734c.147.177.307.343.478.498-.414.131-.844.21-1.278.236zm4.05.174a4 4 0 01-2.548-1.318c.341-.191.64-.451.874-.764l.96.96.565-.566-1.126-1.126c.047-.127.084-.258.111-.39.429.136.875.211 1.325.223.45.58.732 1.276.813 2.007l.122 1.096-1.096-.122zm3.115-4.952a4.023 4.023 0 01-4.234.916 2.78 2.78 0 00-.258-.929H31.8v-.8h-1.76a2.818 2.818 0 001.109-1.243 3.986 3.986 0 012.388 1.146l.497.497-.413.413z" fill="#B5B5B5"/></svg>